<svg xmlns="http://www.w3.org/2000/svg" xmlns:xlink="http://www.w3.org/1999/xlink" width="840" height="168.55"><rect width="840" height="168.55" rx="5" ry="5" class="a"/><svg y="0%" x="0%"><circle cx="20" cy="20" r="6" fill="#ff5f58"/><circle cx="40" cy="20" r="6" fill="#ffbd2e"/><circle cx="60" cy="20" r="6" fill="#18c132"/></svg><svg height="108.55" viewBox="0 0 80 10.855" width="800" x="15" xmlns="http://www.w3.org/2000/svg" xmlns:xlink="http://www.w3.org/1999/xlink" y="50"><style>@keyframes n{0%{transform:translateX(0)}.2%{transform:translateX(-80px)}.6%{transform:translateX(-160px)}.9%{transform:translateX(-480px)}1%{transform:translateX(-640px)}4.1%{transform:translateX(-720px)}5.4%{transform:translateX(-800px)}7.3%{transform:translateX(-880px)}8.3%{transform:translateX(-960px)}8.8%{transform:translateX(-1040px)}10.3%{transform:translateX(-1120px)}11.6%{transform:translateX(-1200px)}12.4%{transform:translateX(-1280px)}13%{transform:translateX(-1360px)}13.2%{transform:translateX(-1440px)}18.8%{transform:translateX(-1520px)}19.9%{transform:translateX(-1600px)}20.7%{transform:translateX(-1680px)}21.3%{transform:translateX(-1760px)}22.2%{transform:translateX(-1840px)}23%{transform:translateX(-1920px)}23.6%{transform:translateX(-2000px)}24.3%{transform:translateX(-2080px)}26%{transform:translateX(-2160px)}26.6%{transform:translateX(-2240px)}27.9%{transform:translateX(-2320px)}28.6%{transform:translateX(-2400px)}29.9%{transform:translateX(-2480px)}30.7%{transform:translateX(-2560px)}33.5%{transform:translateX(-2640px)}36.1%{transform:translateX(-2720px)}36.9%{transform:translateX(-2800px)}38.2%{transform:translateX(-2880px)}40.2%{transform:translateX(-2960px)}41%{transform:translateX(-3040px)}42.2%{transform:translateX(-3120px)}42.7%{transform:translateX(-3200px)}43.8%{transform:translateX(-3280px)}44.2%{transform:translateX(-3360px)}46%{transform:translateX(-3440px)}46.7%{transform:translateX(-3520px)}50.6%{transform:translateX(-3600px)}51.4%{transform:translateX(-3680px)}52.3%{transform:translateX(-3760px)}55.7%{transform:translateX(-3840px)}57.1%{transform:translateX(-3920px)}58.1%{transform:translateX(-4000px)}58.7%{transform:translateX(-4080px)}59.5%{transform:translateX(-4160px)}65.1%{transform:translateX(-4400px)}66.2%{transform:translateX(-4560px)}69.1%{transform:translateX(-4720px)}70.2%{transform:translateX(-4880px)}71.8%{transform:translateX(-5040px)}72.7%{transform:translateX(-5200px)}74%{transform:translateX(-5360px)}75.2%{transform:translateX(-5520px)}75.6%{transform:translateX(-5680px)}77.2%{transform:translateX(-5840px)}80.4%{transform:translateX(-6080px)}81.6%{transform:translateX(-6160px)}81.7%{transform:translateX(-6560px)}81.8%{transform:translateX(-6720px)}99.9%{transform:translateX(-6800px)}to{transform:translateX(-6960px)}}.a{fill:#282d35}.f{fill:#b9c0cb;white-space:pre}.g,.h{font-weight:700}.g{fill:#a8cc8c;white-space:pre}.h{fill:#66c2cd}.h,.j,.k{white-space:pre}.j{fill:#b9c0cb;font-weight:700}.k{fill:#66c2cd}</style><g font-family="Monaco,Consolas,Menlo,'Bitstream Vera Sans Mono','Powerline Symbols',monospace" font-size="1.67"><defs><symbol id="1"><text y="1.67" class="f">Restored</text><text x="9.018" y="1.67" class="f">session:</text><text x="18.036" y="1.67" class="f">Sun</text><text x="22.044" y="1.67" class="f">Nov</text><text x="27.054" y="1.67" class="f">7</text><text x="29.058" y="1.67" class="f">11:43:50</text><text x="38.076" y="1.67" class="f">CET</text><text x="42.084" y="1.67" class="f">2021</text></symbol><symbol id="2"><text y="1.67" class="g">➜</text><text x="3.006" y="1.67" class="h">~</text></symbol><symbol id="3"><text y="1.67" class="g">➜</text><text x="3.006" y="1.67" class="h">~</text><text x="5.01" y="1.67" class="f">pass</text></symbol><symbol id="4"><text y="1.67" class="g">➜</text><text x="3.006" y="1.67" class="h">~</text><text x="5.01" y="1.67" class="f">pass</text><text x="10.02" y="1.67" class="f">gen</text></symbol><symbol id="5"><text y="1.67" class="g">➜</text><text x="3.006" y="1.67" class="h">~</text><text x="5.01" y="1.67" class="f">pass</text><text x="10.02" y="1.67" class="f">genr</text></symbol><symbol id="6"><text y="1.67" class="g">➜</text><text x="3.006" y="1.67" class="h">~</text><text x="5.01" y="1.67" class="f">pass</text><text x="10.02" y="1.67" class="f">generate</text></symbol><symbol id="7"><text y="1.67" class="g">➜</text><text x="3.006" y="1.67" class="h">~</text><text x="5.01" y="1.67" class="f">pass</text><text x="10.02" y="1.67" class="f">generate</text><text x="19.038" y="1.67" class="f">my-app</text></symbol><symbol id="8"><text y="1.67" class="g">➜</text><text x="3.006" y="1.67" class="h">~</text><text x="5.01" y="1.67" class="f">pass</text><text x="10.02" y="1.67" class="f">generate</text><text x="19.038" y="1.67" class="f">my-app</text><text x="26.052" y="1.67" class="f">my-user</text></symbol><symbol id="9"><text y="1.67" class="g">➜</text><text x="3.006" y="1.67" class="h">~</text><text x="5.01" y="1.67" class="f">pass</text><text x="10.02" y="1.67" class="f">generate</text><text x="19.038" y="1.67" class="f">my-app</text><text x="26.052" y="1.67" class="f">my-usera</text></symbol><symbol id="10"><text y="1.67" class="g">➜</text><text x="3.006" y="1.67" class="h">~</text><text x="5.01" y="1.67" class="f">pass</text><text x="10.02" y="1.67" class="f">generate</text><text x="19.038" y="1.67" class="f">my-app</text><text x="26.052" y="1.67" class="f">my-useran</text></symbol><symbol id="11"><text y="1.67" class="g">➜</text><text x="3.006" y="1.67" class="h">~</text><text x="5.01" y="1.67" class="f">pass</text><text x="10.02" y="1.67" class="f">generate</text><text x="19.038" y="1.67" class="f">my-app</text><text x="26.052" y="1.67" class="f">my-useranm</text></symbol><symbol id="12"><text y="1.67" class="g">➜</text><text x="3.006" y="1.67" class="h">~</text><text x="5.01" y="1.67" class="f">pass</text><text x="10.02" y="1.67" class="f">generate</text><text x="19.038" y="1.67" class="f">my-app</text><text x="26.052" y="1.67" class="f">my-username</text></symbol><symbol id="13"><text y="1.67" style="white-space:pre" fill="#a8cc8c">✔</text><text x="2.004" y="1.67" class="j">Master</text><text x="9.018" y="1.67" class="j">password:</text><text x="19.038" y="1.67" class="f">·</text><text x="21.042" y="1.67" class="k">********</text></symbol><symbol id="14"><text y="1.67" class="f">Generated</text><text x="10.02" y="1.67" class="f">password:</text><text x="20.04" y="1.67" class="k">163076b2ad5d05ff</text></symbol><symbol id="a"><path fill="transparent" d="M0 0h80v6H0z"/></symbol><symbol id="b"><path fill="#6f7683" d="M0 0h1.102v2.171H0z"/></symbol></defs><path class="a" d="M0 0h80v10.855H0z"/><g style="animation-duration:13.453242s;animation-iteration-count:infinite;animation-name:n;animation-timing-function:steps(1,end)"><svg width="7040"><svg><use xlink:href="#a"/><use xlink:href="#b" x="-.004"/></svg><svg x="80"><use xlink:href="#a"/><use xlink:href="#b" x="-.004" y="2.146"/><use xlink:href="#1"/></svg><svg x="160"><use xlink:href="#a"/><use xlink:href="#b" x="-.004" y="2.146"/><use xlink:href="#1"/></svg><svg x="240"><use xlink:href="#a"/><use xlink:href="#b" x="-.004" y="2.146"/><use xlink:href="#1"/></svg><svg x="320"><use xlink:href="#a"/><use xlink:href="#b" x="-.004" y="2.146"/><use xlink:href="#1"/></svg><svg x="400"><use xlink:href="#a"/><use xlink:href="#b" x="-.004" y="2.146"/><use xlink:href="#1"/></svg><svg x="480"><use xlink:href="#a"/><use xlink:href="#b" x="-.004" y="2.146"/><use xlink:href="#1"/></svg><svg x="560"><use xlink:href="#a"/><use xlink:href="#b" x="4.996" y="2.146"/><use xlink:href="#1"/><use xlink:href="#2" y="2.171"/></svg><svg x="640"><use xlink:href="#a"/><use xlink:href="#b" x="4.996" y="2.146"/><use xlink:href="#1"/><use xlink:href="#2" y="2.171"/></svg><svg x="720"><use xlink:href="#a"/><use xlink:href="#b" x="5.996" y="2.146"/><use xlink:href="#1"/><text y="3.841" class="g">➜</text><text x="3.006" y="3.841" class="h">~</text><text x="5.01" y="3.841" class="f">p</text></svg><svg x="800"><use xlink:href="#a"/><use xlink:href="#b" x="6.996" y="2.146"/><use xlink:href="#1"/><text y="3.841" class="g">➜</text><text x="3.006" y="3.841" class="h">~</text><text x="5.01" y="3.841" class="f">pa</text></svg><svg x="880"><use xlink:href="#a"/><use xlink:href="#b" x="7.996" y="2.146"/><use xlink:href="#1"/><text y="3.841" class="g">➜</text><text x="3.006" y="3.841" class="h">~</text><text x="5.01" y="3.841" class="f">pas</text></svg><svg x="960"><use xlink:href="#a"/><use xlink:href="#b" x="8.996" y="2.146"/><use xlink:href="#1"/><use xlink:href="#3" y="2.171"/></svg><svg x="1040"><use xlink:href="#a"/><use xlink:href="#b" x="9.996" y="2.146"/><use xlink:href="#1"/><use xlink:href="#3" y="2.171"/></svg><svg x="1120"><use xlink:href="#a"/><use xlink:href="#b" x="10.996" y="2.146"/><use xlink:href="#1"/><text y="3.841" class="g">➜</text><text x="3.006" y="3.841" class="h">~</text><text x="5.01" y="3.841" class="f">pass</text><text x="10.02" y="3.841" class="f">g</text></svg><svg x="1200"><use xlink:href="#a"/><use xlink:href="#b" x="11.996" y="2.146"/><use xlink:href="#1"/><text y="3.841" class="g">➜</text><text x="3.006" y="3.841" class="h">~</text><text x="5.01" y="3.841" class="f">pass</text><text x="10.02" y="3.841" class="f">ge</text></svg><svg x="1280"><use xlink:href="#a"/><use xlink:href="#b" x="12.996" y="2.146"/><use xlink:href="#1"/><use xlink:href="#4" y="2.171"/></svg><svg x="1360"><use xlink:href="#a"/><use xlink:href="#b" x="13.996" y="2.146"/><use xlink:href="#1"/><use xlink:href="#5" y="2.171"/></svg><svg x="1440"><use xlink:href="#a"/><use xlink:href="#b" x="14.996" y="2.146"/><use xlink:href="#1"/><text y="3.841" class="g">➜</text><text x="3.006" y="3.841" class="h">~</text><text x="5.01" y="3.841" class="f">pass</text><text x="10.02" y="3.841" class="f">genre</text></svg><svg x="1520"><use xlink:href="#a"/><use xlink:href="#b" x="13.996" y="2.146"/><use xlink:href="#1"/><use xlink:href="#5" y="2.171"/></svg><svg x="1600"><use xlink:href="#a"/><use xlink:href="#b" x="12.996" y="2.146"/><use xlink:href="#1"/><use xlink:href="#4" y="2.171"/></svg><svg x="1680"><use xlink:href="#a"/><use xlink:href="#b" x="13.996" y="2.146"/><use xlink:href="#1"/><text y="3.841" class="g">➜</text><text x="3.006" y="3.841" class="h">~</text><text x="5.01" y="3.841" class="f">pass</text><text x="10.02" y="3.841" class="f">gene</text></svg><svg x="1760"><use xlink:href="#a"/><use xlink:href="#b" x="14.996" y="2.146"/><use xlink:href="#1"/><text y="3.841" class="g">➜</text><text x="3.006" y="3.841" class="h">~</text><text x="5.01" y="3.841" class="f">pass</text><text x="10.02" y="3.841" class="f">gener</text></svg><svg x="1840"><use xlink:href="#a"/><use xlink:href="#b" x="15.996" y="2.146"/><use xlink:href="#1"/><text y="3.841" class="g">➜</text><text x="3.006" y="3.841" class="h">~</text><text x="5.01" y="3.841" class="f">pass</text><text x="10.02" y="3.841" class="f">genera</text></svg><svg x="1920"><use xlink:href="#a"/><use xlink:href="#b" x="16.996" y="2.146"/><use xlink:href="#1"/><text y="3.841" class="g">➜</text><text x="3.006" y="3.841" class="h">~</text><text x="5.01" y="3.841" class="f">pass</text><text x="10.02" y="3.841" class="f">generat</text></svg><svg x="2000"><use xlink:href="#a"/><use xlink:href="#b" x="17.996" y="2.146"/><use xlink:href="#1"/><use xlink:href="#6" y="2.171"/></svg><svg x="2080"><use xlink:href="#a"/><use xlink:href="#b" x="18.996" y="2.146"/><use xlink:href="#1"/><use xlink:href="#6" y="2.171"/></svg><svg x="2160"><use xlink:href="#a"/><use xlink:href="#b" x="19.996" y="2.146"/><use xlink:href="#1"/><text y="3.841" class="g">➜</text><text x="3.006" y="3.841" class="h">~</text><text x="5.01" y="3.841" class="f">pass</text><text x="10.02" y="3.841" class="f">generate</text><text x="19.038" y="3.841" class="f">m</text></svg><svg x="2240"><use xlink:href="#a"/><use xlink:href="#b" x="20.996" y="2.146"/><use xlink:href="#1"/><text y="3.841" class="g">➜</text><text x="3.006" y="3.841" class="h">~</text><text x="5.01" y="3.841" class="f">pass</text><text x="10.02" y="3.841" class="f">generate</text><text x="19.038" y="3.841" class="f">my</text></svg><svg x="2320"><use xlink:href="#a"/><use xlink:href="#b" x="21.996" y="2.146"/><use xlink:href="#1"/><text y="3.841" class="g">➜</text><text x="3.006" y="3.841" class="h">~</text><text x="5.01" y="3.841" class="f">pass</text><text x="10.02" y="3.841" class="f">generate</text><text x="19.038" y="3.841" class="f">my-</text></svg><svg x="2400"><use xlink:href="#a"/><use xlink:href="#b" x="22.996" y="2.146"/><use xlink:href="#1"/><text y="3.841" class="g">➜</text><text x="3.006" y="3.841" class="h">~</text><text x="5.01" y="3.841" class="f">pass</text><text x="10.02" y="3.841" class="f">generate</text><text x="19.038" y="3.841" class="f">my-a</text></svg><svg x="2480"><use xlink:href="#a"/><use xlink:href="#b" x="23.996" y="2.146"/><use xlink:href="#1"/><text y="3.841" class="g">➜</text><text x="3.006" y="3.841" class="h">~</text><text x="5.01" y="3.841" class="f">pass</text><text x="10.02" y="3.841" class="f">generate</text><text x="19.038" y="3.841" class="f">my-ap</text></svg><svg x="2560"><use xlink:href="#a"/><use xlink:href="#b" x="24.996" y="2.146"/><use xlink:href="#1"/><use xlink:href="#7" y="2.171"/></svg><svg x="2640"><use xlink:href="#a"/><use xlink:href="#b" x="25.996" y="2.146"/><use xlink:href="#1"/><use xlink:href="#7" y="2.171"/></svg><svg x="2720"><use xlink:href="#a"/><use xlink:href="#b" x="26.996" y="2.146"/><use xlink:href="#1"/><text y="3.841" class="g">➜</text><text x="3.006" y="3.841" class="h">~</text><text x="5.01" y="3.841" class="f">pass</text><text x="10.02" y="3.841" class="f">generate</text><text x="19.038" y="3.841" class="f">my-app</text><text x="26.052" y="3.841" class="f">m</text></svg><svg x="2800"><use xlink:href="#a"/><use xlink:href="#b" x="27.996" y="2.146"/><use xlink:href="#1"/><text y="3.841" class="g">➜</text><text x="3.006" y="3.841" class="h">~</text><text x="5.01" y="3.841" class="f">pass</text><text x="10.02" y="3.841" class="f">generate</text><text x="19.038" y="3.841" class="f">my-app</text><text x="26.052" y="3.841" class="f">my</text></svg><svg x="2880"><use xlink:href="#a"/><use xlink:href="#b" x="28.996" y="2.146"/><use xlink:href="#1"/><text y="3.841" class="g">➜</text><text x="3.006" y="3.841" class="h">~</text><text x="5.01" y="3.841" class="f">pass</text><text x="10.02" y="3.841" class="f">generate</text><text x="19.038" y="3.841" class="f">my-app</text><text x="26.052" y="3.841" class="f">my-</text></svg><svg x="2960"><use xlink:href="#a"/><use xlink:href="#b" x="29.996" y="2.146"/><use xlink:href="#1"/><text y="3.841" class="g">➜</text><text x="3.006" y="3.841" class="h">~</text><text x="5.01" y="3.841" class="f">pass</text><text x="10.02" y="3.841" class="f">generate</text><text x="19.038" y="3.841" class="f">my-app</text><text x="26.052" y="3.841" class="f">my-u</text></svg><svg x="3040"><use xlink:href="#a"/><use xlink:href="#b" x="30.996" y="2.146"/><use xlink:href="#1"/><text y="3.841" class="g">➜</text><text x="3.006" y="3.841" class="h">~</text><text x="5.01" y="3.841" class="f">pass</text><text x="10.02" y="3.841" class="f">generate</text><text x="19.038" y="3.841" class="f">my-app</text><text x="26.052" y="3.841" class="f">my-us</text></svg><svg x="3120"><use xlink:href="#a"/><use xlink:href="#b" x="31.996" y="2.146"/><use xlink:href="#1"/><text y="3.841" class="g">➜</text><text x="3.006" y="3.841" class="h">~</text><text x="5.01" y="3.841" class="f">pass</text><text x="10.02" y="3.841" class="f">generate</text><text x="19.038" y="3.841" class="f">my-app</text><text x="26.052" y="3.841" class="f">my-use</text></svg><svg x="3200"><use xlink:href="#a"/><use xlink:href="#b" x="32.996" y="2.146"/><use xlink:href="#1"/><use xlink:href="#8" y="2.171"/></svg><svg x="3280"><use xlink:href="#a"/><use xlink:href="#b" x="33.996" y="2.146"/><use xlink:href="#1"/><use xlink:href="#9" y="2.171"/></svg><svg x="3360"><use xlink:href="#a"/><use xlink:href="#b" x="34.996" y="2.146"/><use xlink:href="#1"/><use xlink:href="#10" y="2.171"/></svg><svg x="3440"><use xlink:href="#a"/><use xlink:href="#b" x="35.996" y="2.146"/><use xlink:href="#1"/><use xlink:href="#11" y="2.171"/></svg><svg x="3520"><use xlink:href="#a"/><use xlink:href="#b" x="36.996" y="2.146"/><use xlink:href="#1"/><text y="3.841" class="g">➜</text><text x="3.006" y="3.841" class="h">~</text><text x="5.01" y="3.841" class="f">pass</text><text x="10.02" y="3.841" class="f">generate</text><text x="19.038" y="3.841" class="f">my-app</text><text x="26.052" y="3.841" class="f">my-useranme</text></svg><svg x="3600"><use xlink:href="#a"/><use xlink:href="#b" x="35.996" y="2.146"/><use xlink:href="#1"/><use xlink:href="#11" y="2.171"/></svg><svg x="3680"><use xlink:href="#a"/><use xlink:href="#b" x="34.996" y="2.146"/><use xlink:href="#1"/><use xlink:href="#10" y="2.171"/></svg><svg x="3760"><use xlink:href="#a"/><use xlink:href="#b" x="33.996" y="2.146"/><use xlink:href="#1"/><use xlink:href="#9" y="2.171"/></svg><svg x="3840"><use xlink:href="#a"/><use xlink:href="#b" x="32.996" y="2.146"/><use xlink:href="#1"/><use xlink:href="#8" y="2.171"/></svg><svg x="3920"><use xlink:href="#a"/><use xlink:href="#b" x="33.996" y="2.146"/><use xlink:href="#1"/><text y="3.841" class="g">➜</text><text x="3.006" y="3.841" class="h">~</text><text x="5.01" y="3.841" class="f">pass</text><text x="10.02" y="3.841" class="f">generate</text><text x="19.038" y="3.841" class="f">my-app</text><text x="26.052" y="3.841" class="f">my-usern</text></svg><svg x="4000"><use xlink:href="#a"/><use xlink:href="#b" x="34.996" y="2.146"/><use xlink:href="#1"/><text y="3.841" class="g">➜</text><text x="3.006" y="3.841" class="h">~</text><text x="5.01" y="3.841" class="f">pass</text><text x="10.02" y="3.841" class="f">generate</text><text x="19.038" y="3.841" class="f">my-app</text><text x="26.052" y="3.841" class="f">my-userna</text></svg><svg x="4080"><use xlink:href="#a"/><use xlink:href="#b" x="35.996" y="2.146"/><use xlink:href="#1"/><text y="3.841" class="g">➜</text><text x="3.006" y="3.841" class="h">~</text><text x="5.01" y="3.841" class="f">pass</text><text x="10.02" y="3.841" class="f">generate</text><text x="19.038" y="3.841" class="f">my-app</text><text x="26.052" y="3.841" class="f">my-usernam</text></svg><svg x="4160"><use xlink:href="#a"/><use xlink:href="#b" x="36.996" y="2.146"/><use xlink:href="#1"/><use xlink:href="#12" y="2.171"/></svg><svg x="4240"><use xlink:href="#a"/><use xlink:href="#b" x="36.996" y="2.146"/><use xlink:href="#1"/><use xlink:href="#12" y="2.171"/></svg><svg x="4320"><use xlink:href="#a"/><use xlink:href="#b" x="-.004" y="4.317"/><use xlink:href="#1"/><use xlink:href="#12" y="2.171"/></svg><svg x="4400"><use xlink:href="#a"/><use xlink:href="#b" x="-.004" y="4.317"/><use xlink:href="#1"/><use xlink:href="#12" y="2.171"/></svg><svg x="4480"><use xlink:href="#a"/><use xlink:href="#b" x="-.004" y="4.317"/><use xlink:href="#1"/><use xlink:href="#12" y="2.171"/></svg><svg x="4560"><use xlink:href="#a"/><use xlink:href="#b" x="20.996" y="4.317"/><use xlink:href="#1"/><use xlink:href="#12" y="2.171"/><text y="6.012" class="k">?</text><text x="2.004" y="6.012" class="j">Master</text><text x="9.018" y="6.012" class="j">password:</text><text x="19.038" y="6.012" class="f">›</text></svg><svg x="4640"><use xlink:href="#a"/><use xlink:href="#b" x="-.004" y="4.317"/><use xlink:href="#1"/><use xlink:href="#12" y="2.171"/></svg><svg x="4720"><use xlink:href="#a"/><use xlink:href="#b" x="21.996" y="4.317"/><use xlink:href="#1"/><use xlink:href="#12" y="2.171"/><text y="6.012" class="k">?</text><text x="2.004" y="6.012" class="j">Master</text><text x="9.018" y="6.012" class="j">password:</text><text x="19.038" y="6.012" class="f">›</text><text x="21.042" y="6.012" class="f">*</text></svg><svg x="4800"><use xlink:href="#a"/><use xlink:href="#b" x="-.004" y="4.317"/><use xlink:href="#1"/><use xlink:href="#12" y="2.171"/></svg><svg x="4880"><use xlink:href="#a"/><use xlink:href="#b" x="22.996" y="4.317"/><use xlink:href="#1"/><use xlink:href="#12" y="2.171"/><text y="6.012" class="k">?</text><text x="2.004" y="6.012" class="j">Master</text><text x="9.018" y="6.012" class="j">password:</text><text x="19.038" y="6.012" class="f">›</text><text x="21.042" y="6.012" class="f">**</text></svg><svg x="4960"><use xlink:href="#a"/><use xlink:href="#b" x="-.004" y="4.317"/><use xlink:href="#1"/><use xlink:href="#12" y="2.171"/></svg><svg x="5040"><use xlink:href="#a"/><use xlink:href="#b" x="23.996" y="4.317"/><use xlink:href="#1"/><use xlink:href="#12" y="2.171"/><text y="6.012" class="k">?</text><text x="2.004" y="6.012" class="j">Master</text><text x="9.018" y="6.012" class="j">password:</text><text x="19.038" y="6.012" class="f">›</text><text x="21.042" y="6.012" class="f">***</text></svg><svg x="5120"><use xlink:href="#a"/><use xlink:href="#b" x="-.004" y="4.317"/><use xlink:href="#1"/><use xlink:href="#12" y="2.171"/></svg><svg x="5200"><use xlink:href="#a"/><use xlink:href="#b" x="24.996" y="4.317"/><use xlink:href="#1"/><use xlink:href="#12" y="2.171"/><text y="6.012" class="k">?</text><text x="2.004" y="6.012" class="j">Master</text><text x="9.018" y="6.012" class="j">password:</text><text x="19.038" y="6.012" class="f">›</text><text x="21.042" y="6.012" class="f">****</text></svg><svg x="5280"><use xlink:href="#a"/><use xlink:href="#b" x="-.004" y="4.317"/><use xlink:href="#1"/><use xlink:href="#12" y="2.171"/></svg><svg x="5360"><use xlink:href="#a"/><use xlink:href="#b" x="25.996" y="4.317"/><use xlink:href="#1"/><use xlink:href="#12" y="2.171"/><text y="6.012" class="k">?</text><text x="2.004" y="6.012" class="j">Master</text><text x="9.018" y="6.012" class="j">password:</text><text x="19.038" y="6.012" class="f">›</text><text x="21.042" y="6.012" class="f">*****</text></svg><svg x="5440"><use xlink:href="#a"/><use xlink:href="#b" x="-.004" y="4.317"/><use xlink:href="#1"/><use xlink:href="#12" y="2.171"/></svg><svg x="5520"><use xlink:href="#a"/><use xlink:href="#b" x="26.996" y="4.317"/><use xlink:href="#1"/><use xlink:href="#12" y="2.171"/><text y="6.012" class="k">?</text><text x="2.004" y="6.012" class="j">Master</text><text x="9.018" y="6.012" class="j">password:</text><text x="19.038" y="6.012" class="f">›</text><text x="21.042" y="6.012" class="f">******</text></svg><svg x="5600"><use xlink:href="#a"/><use xlink:href="#b" x="-.004" y="4.317"/><use xlink:href="#1"/><use xlink:href="#12" y="2.171"/></svg><svg x="5680"><use xlink:href="#a"/><use xlink:href="#b" x="27.996" y="4.317"/><use xlink:href="#1"/><use xlink:href="#12" y="2.171"/><text y="6.012" class="k">?</text><text x="2.004" y="6.012" class="j">Master</text><text x="9.018" y="6.012" class="j">password:</text><text x="19.038" y="6.012" class="f">›</text><text x="21.042" y="6.012" class="f">*******</text></svg><svg x="5760"><use xlink:href="#a"/><use xlink:href="#b" x="-.004" y="4.317"/><use xlink:href="#1"/><use xlink:href="#12" y="2.171"/></svg><svg x="5840"><use xlink:href="#a"/><use xlink:href="#b" x="28.996" y="4.317"/><use xlink:href="#1"/><use xlink:href="#12" y="2.171"/><text y="6.012" class="k">?</text><text x="2.004" y="6.012" class="j">Master</text><text x="9.018" y="6.012" class="j">password:</text><text x="19.038" y="6.012" class="f">›</text><text x="21.042" y="6.012" class="f">********</text></svg><svg x="5920"><use xlink:href="#a"/><use xlink:href="#b" x="-.004" y="4.317"/><use xlink:href="#1"/><use xlink:href="#12" y="2.171"/></svg><svg x="6000"><use xlink:href="#a"/><use xlink:href="#b" x="28.996" y="4.317"/><use xlink:href="#1"/><use xlink:href="#12" y="2.171"/><use xlink:href="#13" y="4.342"/></svg><svg x="6080"><use xlink:href="#a"/><use xlink:href="#b" x="-.004" y="6.488"/><use xlink:href="#1"/><use xlink:href="#12" y="2.171"/><use xlink:href="#13" y="4.342"/></svg><svg x="6160"><use xlink:href="#a"/><use xlink:href="#b" x="-.004" y="8.659"/><use xlink:href="#1"/><use xlink:href="#12" y="2.171"/><use xlink:href="#13" y="4.342"/><use xlink:href="#14" y="6.513"/></svg><svg x="6240"><use xlink:href="#a"/><use xlink:href="#b" x="-.004" y="8.659"/><use xlink:href="#1"/><use xlink:href="#12" y="2.171"/><use xlink:href="#13" y="4.342"/><use xlink:href="#14" y="6.513"/></svg><svg x="6320"><use xlink:href="#a"/><use xlink:href="#b" x="-.004" y="8.659"/><use xlink:href="#1"/><use xlink:href="#12" y="2.171"/><use xlink:href="#13" y="4.342"/><use xlink:href="#14" y="6.513"/></svg><svg x="6400"><use xlink:href="#a"/><use xlink:href="#b" x="-.004" y="8.659"/><use xlink:href="#1"/><use xlink:href="#12" y="2.171"/><use xlink:href="#13" y="4.342"/><use xlink:href="#14" y="6.513"/></svg><svg x="6480"><use xlink:href="#a"/><use xlink:href="#b" x="-.004" y="8.659"/><use xlink:href="#1"/><use xlink:href="#12" y="2.171"/><use xlink:href="#13" y="4.342"/><use xlink:href="#14" y="6.513"/></svg><svg x="6560"><use xlink:href="#a"/><use xlink:href="#b" x="-.004" y="8.659"/><use xlink:href="#1"/><use xlink:href="#12" y="2.171"/><use xlink:href="#13" y="4.342"/><use xlink:href="#14" y="6.513"/></svg><svg x="6640"><use xlink:href="#a"/><use xlink:href="#b" x="4.996" y="8.659"/><use xlink:href="#1"/><use xlink:href="#12" y="2.171"/><use xlink:href="#13" y="4.342"/><use xlink:href="#14" y="6.513"/><use xlink:href="#2" y="8.684"/></svg><svg x="6720"><use xlink:href="#a"/><use xlink:href="#b" x="4.996" y="8.659"/><use xlink:href="#1"/><use xlink:href="#12" y="2.171"/><use xlink:href="#13" y="4.342"/><use xlink:href="#14" y="6.513"/><use xlink:href="#2" y="8.684"/></svg><svg x="6800"><use xlink:href="#a"/><use xlink:href="#b" x="-.004" y="10.83"/><use xlink:href="#1"/><use xlink:href="#12" y="2.171"/><use xlink:href="#13" y="4.342"/><use xlink:href="#14" y="6.513"/><use xlink:href="#2" y="8.684"/></svg><svg x="6880"><use xlink:href="#a"/><use xlink:href="#b" x="16.996" y="10.83"/><use xlink:href="#12"/><use xlink:href="#13" y="2.171"/><use xlink:href="#14" y="4.342"/><use xlink:href="#2" y="6.513"/><text y="12.525" class="f">Saving</text><text x="7.014" y="12.525" class="f">session...</text></svg><svg x="6960"><use xlink:href="#a"/><use xlink:href="#b" x="-.004" y="10.83"/><use xlink:href="#13"/><use xlink:href="#14" y="2.171"/><use xlink:href="#2" y="4.342"/><text y="10.354" class="f">Saving</text><text x="7.014" y="10.354" class="f">session...completed.</text></svg></svg></g></g></svg></svg>