<svg xmlns="http://www.w3.org/2000/svg" xmlns:xlink="http://www.w3.org/1999/xlink" width="840" height="125.13"><rect width="840" height="125.13" rx="5" ry="5" class="a"/><svg y="0%" x="0%"><circle cx="20" cy="20" r="6" fill="#ff5f58"/><circle cx="40" cy="20" r="6" fill="#ffbd2e"/><circle cx="60" cy="20" r="6" fill="#18c132"/></svg><svg height="65.13" viewBox="0 0 80 6.513" width="800" x="15" xmlns="http://www.w3.org/2000/svg" xmlns:xlink="http://www.w3.org/1999/xlink" y="50"><style>@keyframes n{0%{transform:translateX(0)}1.4%{transform:translateX(-80px)}1.6%{transform:translateX(-480px)}1.8%{transform:translateX(-720px)}12.3%{transform:translateX(-800px)}14.8%{transform:translateX(-880px)}18.2%{transform:translateX(-960px)}20.7%{transform:translateX(-1040px)}22%{transform:translateX(-1120px)}24.5%{transform:translateX(-1200px)}27.5%{transform:translateX(-1280px)}30.6%{transform:translateX(-1360px)}32.2%{transform:translateX(-1440px)}39.7%{transform:translateX(-1680px)}42.8%{transform:translateX(-1760px)}42.9%{transform:translateX(-1840px)}60.4%{transform:translateX(-2000px)}61.7%{transform:translateX(-2160px)}65%{transform:translateX(-2320px)}67.4%{transform:translateX(-2480px)}70.4%{transform:translateX(-2640px)}72.4%{transform:translateX(-2800px)}73.6%{transform:translateX(-2960px)}76.6%{transform:translateX(-3120px)}79.7%{transform:translateX(-3200px)}79.8%{transform:translateX(-3360px)}81.1%{transform:translateX(-3760px)}81.3%{transform:translateX(-3920px)}99.8%{transform:translateX(-4000px)}99.9%{transform:translateX(-4080px)}to{transform:translateX(-4160px)}}.a{fill:#282d35}.f,.g{fill:#a8cc8c;font-weight:700;white-space:pre}.g{fill:#66c2cd}.h{fill:#b9c0cb}.h,.j,.k{white-space:pre}.j{fill:#b9c0cb;font-weight:700}.k{fill:#66c2cd}</style><g font-family="Monaco,Consolas,Menlo,'Bitstream Vera Sans Mono','Powerline Symbols',monospace" font-size="1.67"><defs><symbol id="1"><text y="1.67" class="f">➜</text><text x="3.006" y="1.67" class="g">~</text></symbol><symbol id="2"><text y="1.67" class="f">➜</text><text x="3.006" y="1.67" class="g">~</text><text x="5.01" y="1.67" class="h">pass</text></symbol><symbol id="3"><text y="1.67" class="f">➜</text><text x="3.006" y="1.67" class="g">~</text><text x="5.01" y="1.67" class="h">pass</text><text x="10.02" y="1.67" class="h">init</text></symbol><symbol id="4"><text y="1.67" style="white-space:pre" fill="#a8cc8c">✔</text><text x="2.004" y="1.67" class="j">Choose</text><text x="9.018" y="1.67" class="j">a</text><text x="11.022" y="1.67" class="j">master</text><text x="18.036" y="1.67" class="j">password:</text><text x="28.056" y="1.67" class="h">·</text><text x="30.06" y="1.67" class="k">********</text></symbol><symbol id="a"><path fill="transparent" d="M0 0h80v4H0z"/></symbol><symbol id="b"><path fill="#6f7683" d="M0 0h1.102v2.171H0z"/></symbol></defs><path class="a" d="M0 0h80v6.513H0z"/><g style="animation-duration:6.421022s;animation-iteration-count:infinite;animation-name:n;animation-timing-function:steps(1,end)"><svg width="4240"><svg><use xlink:href="#a"/><use xlink:href="#b" x="-.004"/></svg><svg x="80"><use xlink:href="#a"/><use xlink:href="#b" x="-.004"/></svg><svg x="160"><use xlink:href="#a"/><use xlink:href="#b" x="-.004"/></svg><svg x="240"><use xlink:href="#a"/><use xlink:href="#b" x="-.004"/></svg><svg x="320"><use xlink:href="#a"/><use xlink:href="#b" x="-.004"/></svg><svg x="400"><use xlink:href="#a"/><use xlink:href="#b" x="-.004"/></svg><svg x="480"><use xlink:href="#a"/><use xlink:href="#b" x="-.004"/></svg><svg x="560"><use xlink:href="#a"/><use xlink:href="#b" x="4.996"/><use xlink:href="#1"/></svg><svg x="640"><use xlink:href="#a"/><use xlink:href="#b" x="4.996"/><use xlink:href="#1"/></svg><svg x="720"><use xlink:href="#a"/><use xlink:href="#b" x="4.996"/><use xlink:href="#1"/></svg><svg x="800"><use xlink:href="#a"/><use xlink:href="#b" x="5.996"/><text y="1.67" class="f">➜</text><text x="3.006" y="1.67" class="g">~</text><text x="5.01" y="1.67" class="h">p</text></svg><svg x="880"><use xlink:href="#a"/><use xlink:href="#b" x="6.996"/><text y="1.67" class="f">➜</text><text x="3.006" y="1.67" class="g">~</text><text x="5.01" y="1.67" class="h">pa</text></svg><svg x="960"><use xlink:href="#a"/><use xlink:href="#b" x="7.996"/><text y="1.67" class="f">➜</text><text x="3.006" y="1.67" class="g">~</text><text x="5.01" y="1.67" class="h">pas</text></svg><svg x="1040"><use xlink:href="#a"/><use xlink:href="#b" x="8.996"/><use xlink:href="#2"/></svg><svg x="1120"><use xlink:href="#a"/><use xlink:href="#b" x="9.996"/><use xlink:href="#2"/></svg><svg x="1200"><use xlink:href="#a"/><use xlink:href="#b" x="10.996"/><text y="1.67" class="f">➜</text><text x="3.006" y="1.67" class="g">~</text><text x="5.01" y="1.67" class="h">pass</text><text x="10.02" y="1.67" class="h">i</text></svg><svg x="1280"><use xlink:href="#a"/><use xlink:href="#b" x="11.996"/><text y="1.67" class="f">➜</text><text x="3.006" y="1.67" class="g">~</text><text x="5.01" y="1.67" class="h">pass</text><text x="10.02" y="1.67" class="h">in</text></svg><svg x="1360"><use xlink:href="#a"/><use xlink:href="#b" x="12.996"/><text y="1.67" class="f">➜</text><text x="3.006" y="1.67" class="g">~</text><text x="5.01" y="1.67" class="h">pass</text><text x="10.02" y="1.67" class="h">ini</text></svg><svg x="1440"><use xlink:href="#a"/><use xlink:href="#b" x="13.996"/><use xlink:href="#3"/></svg><svg x="1520"><use xlink:href="#a"/><use xlink:href="#b" x="13.996"/><use xlink:href="#3"/></svg><svg x="1600"><use xlink:href="#a"/><use xlink:href="#b" x="-.004" y="2.146"/><use xlink:href="#3"/></svg><svg x="1680"><use xlink:href="#a"/><use xlink:href="#b" x="-.004" y="2.146"/><use xlink:href="#3"/></svg><svg x="1760"><use xlink:href="#a"/><use xlink:href="#b" x="-.004" y="2.146"/><use xlink:href="#3"/></svg><svg x="1840"><use xlink:href="#a"/><use xlink:href="#b" x="29.996" y="2.146"/><use xlink:href="#3"/><text y="3.841" class="k">?</text><text x="2.004" y="3.841" class="j">Choose</text><text x="9.018" y="3.841" class="j">a</text><text x="11.022" y="3.841" class="j">master</text><text x="18.036" y="3.841" class="j">password:</text><text x="28.056" y="3.841" class="h">›</text></svg><svg x="1920"><use xlink:href="#a"/><use xlink:href="#b" x="-.004" y="2.146"/><use xlink:href="#3"/></svg><svg x="2000"><use xlink:href="#a"/><use xlink:href="#b" x="30.996" y="2.146"/><use xlink:href="#3"/><text y="3.841" class="k">?</text><text x="2.004" y="3.841" class="j">Choose</text><text x="9.018" y="3.841" class="j">a</text><text x="11.022" y="3.841" class="j">master</text><text x="18.036" y="3.841" class="j">password:</text><text x="28.056" y="3.841" class="h">›</text><text x="30.06" y="3.841" class="h">*</text></svg><svg x="2080"><use xlink:href="#a"/><use xlink:href="#b" x="-.004" y="2.146"/><use xlink:href="#3"/></svg><svg x="2160"><use xlink:href="#a"/><use xlink:href="#b" x="31.996" y="2.146"/><use xlink:href="#3"/><text y="3.841" class="k">?</text><text x="2.004" y="3.841" class="j">Choose</text><text x="9.018" y="3.841" class="j">a</text><text x="11.022" y="3.841" class="j">master</text><text x="18.036" y="3.841" class="j">password:</text><text x="28.056" y="3.841" class="h">›</text><text x="30.06" y="3.841" class="h">**</text></svg><svg x="2240"><use xlink:href="#a"/><use xlink:href="#b" x="-.004" y="2.146"/><use xlink:href="#3"/></svg><svg x="2320"><use xlink:href="#a"/><use xlink:href="#b" x="32.996" y="2.146"/><use xlink:href="#3"/><text y="3.841" class="k">?</text><text x="2.004" y="3.841" class="j">Choose</text><text x="9.018" y="3.841" class="j">a</text><text x="11.022" y="3.841" class="j">master</text><text x="18.036" y="3.841" class="j">password:</text><text x="28.056" y="3.841" class="h">›</text><text x="30.06" y="3.841" class="h">***</text></svg><svg x="2400"><use xlink:href="#a"/><use xlink:href="#b" x="-.004" y="2.146"/><use xlink:href="#3"/></svg><svg x="2480"><use xlink:href="#a"/><use xlink:href="#b" x="33.996" y="2.146"/><use xlink:href="#3"/><text y="3.841" class="k">?</text><text x="2.004" y="3.841" class="j">Choose</text><text x="9.018" y="3.841" class="j">a</text><text x="11.022" y="3.841" class="j">master</text><text x="18.036" y="3.841" class="j">password:</text><text x="28.056" y="3.841" class="h">›</text><text x="30.06" y="3.841" class="h">****</text></svg><svg x="2560"><use xlink:href="#a"/><use xlink:href="#b" x="-.004" y="2.146"/><use xlink:href="#3"/></svg><svg x="2640"><use xlink:href="#a"/><use xlink:href="#b" x="34.996" y="2.146"/><use xlink:href="#3"/><text y="3.841" class="k">?</text><text x="2.004" y="3.841" class="j">Choose</text><text x="9.018" y="3.841" class="j">a</text><text x="11.022" y="3.841" class="j">master</text><text x="18.036" y="3.841" class="j">password:</text><text x="28.056" y="3.841" class="h">›</text><text x="30.06" y="3.841" class="h">*****</text></svg><svg x="2720"><use xlink:href="#a"/><use xlink:href="#b" x="-.004" y="2.146"/><use xlink:href="#3"/></svg><svg x="2800"><use xlink:href="#a"/><use xlink:href="#b" x="35.996" y="2.146"/><use xlink:href="#3"/><text y="3.841" class="k">?</text><text x="2.004" y="3.841" class="j">Choose</text><text x="9.018" y="3.841" class="j">a</text><text x="11.022" y="3.841" class="j">master</text><text x="18.036" y="3.841" class="j">password:</text><text x="28.056" y="3.841" class="h">›</text><text x="30.06" y="3.841" class="h">******</text></svg><svg x="2880"><use xlink:href="#a"/><use xlink:href="#b" x="-.004" y="2.146"/><use xlink:href="#3"/></svg><svg x="2960"><use xlink:href="#a"/><use xlink:href="#b" x="36.996" y="2.146"/><use xlink:href="#3"/><text y="3.841" class="k">?</text><text x="2.004" y="3.841" class="j">Choose</text><text x="9.018" y="3.841" class="j">a</text><text x="11.022" y="3.841" class="j">master</text><text x="18.036" y="3.841" class="j">password:</text><text x="28.056" y="3.841" class="h">›</text><text x="30.06" y="3.841" class="h">*******</text></svg><svg x="3040"><use xlink:href="#a"/><use xlink:href="#b" x="-.004" y="2.146"/><use xlink:href="#3"/></svg><svg x="3120"><use xlink:href="#a"/><use xlink:href="#b" x="37.996" y="2.146"/><use xlink:href="#3"/><text y="3.841" class="k">?</text><text x="2.004" y="3.841" class="j">Choose</text><text x="9.018" y="3.841" class="j">a</text><text x="11.022" y="3.841" class="j">master</text><text x="18.036" y="3.841" class="j">password:</text><text x="28.056" y="3.841" class="h">›</text><text x="30.06" y="3.841" class="h">********</text></svg><svg x="3200"><use xlink:href="#a"/><use xlink:href="#b" x="-.004" y="2.146"/><use xlink:href="#3"/></svg><svg x="3280"><use xlink:href="#a"/><use xlink:href="#b" x="37.996" y="2.146"/><use xlink:href="#3"/><use xlink:href="#4" y="2.171"/></svg><svg x="3360"><use xlink:href="#a"/><use xlink:href="#b" x="-.004" y="4.317"/><use xlink:href="#3"/><use xlink:href="#4" y="2.171"/></svg><svg x="3440"><use xlink:href="#a"/><use xlink:href="#b" x="-.004" y="4.317"/><use xlink:href="#3"/><use xlink:href="#4" y="2.171"/></svg><svg x="3520"><use xlink:href="#a"/><use xlink:href="#b" x="-.004" y="4.317"/><use xlink:href="#3"/><use xlink:href="#4" y="2.171"/></svg><svg x="3600"><use xlink:href="#a"/><use xlink:href="#b" x="-.004" y="4.317"/><use xlink:href="#3"/><use xlink:href="#4" y="2.171"/></svg><svg x="3680"><use xlink:href="#a"/><use xlink:href="#b" x="-.004" y="4.317"/><use xlink:href="#3"/><use xlink:href="#4" y="2.171"/></svg><svg x="3760"><use xlink:href="#a"/><use xlink:href="#b" x="-.004" y="4.317"/><use xlink:href="#3"/><use xlink:href="#4" y="2.171"/></svg><svg x="3840"><use xlink:href="#a"/><use xlink:href="#b" x="4.996" y="4.317"/><use xlink:href="#3"/><use xlink:href="#4" y="2.171"/><use xlink:href="#1" y="4.342"/></svg><svg x="3920"><use xlink:href="#a"/><use xlink:href="#b" x="4.996" y="4.317"/><use xlink:href="#3"/><use xlink:href="#4" y="2.171"/><use xlink:href="#1" y="4.342"/></svg><svg x="4000"><use xlink:href="#a"/><use xlink:href="#b" x="-.004" y="6.488"/><use xlink:href="#3"/><use xlink:href="#4" y="2.171"/><use xlink:href="#1" y="4.342"/></svg><svg x="4080"><use xlink:href="#a"/><use xlink:href="#b" x="16.996" y="6.488"/><use xlink:href="#4"/><use xlink:href="#1" y="2.171"/><text y="8.183" class="h">Saving</text><text x="7.014" y="8.183" class="h">session...</text></svg><svg x="4160"><use xlink:href="#a"/><use xlink:href="#b" x="-.004" y="6.488"/><use xlink:href="#1"/><text y="6.012" class="h">Saving</text><text x="7.014" y="6.012" class="h">session...completed.</text></svg></svg></g></g></svg></svg>